<svg xmlns="http://www.w3.org/2000/svg" width="512" height="512" fill="none"><g clip-path="url(#a)"><path fill="#fff" d="M149.444 363.874c-16.01 0-30.207-2.737-42.591-8.211-12.315-5.542-22.03-13.17-29.146-22.886-7.115-9.715-10.742-20.902-10.878-33.559h51.108c.205 4.584 1.676 8.655 4.413 12.213 2.737 3.489 6.466 6.226 11.187 8.21 4.72 1.984 10.091 2.976 16.112 2.976 6.021 0 11.323-1.06 15.907-3.181 4.653-2.19 8.279-5.166 10.879-8.929 2.6-3.831 3.866-8.21 3.797-13.136.069-4.926-1.334-9.305-4.207-13.137-2.874-3.831-6.945-6.807-12.213-8.928-5.2-2.121-11.358-3.182-18.473-3.182h-20.423v-36.125h20.423c6.226 0 11.699-1.026 16.42-3.079 4.79-2.052 8.518-4.926 11.187-8.62 2.668-3.763 3.968-8.074 3.9-12.931.068-4.721-1.061-8.861-3.387-12.418-2.258-3.627-5.439-6.432-9.545-8.416-4.036-1.984-8.723-2.976-14.06-2.976-5.61 0-10.707.992-15.291 2.976-4.516 1.984-8.108 4.789-10.776 8.416-2.668 3.626-4.071 7.834-4.208 12.623H71.036c.137-12.521 3.626-23.536 10.468-33.046 6.842-9.579 16.147-17.071 27.915-22.476 11.836-5.405 25.315-8.107 40.435-8.107 15.052 0 28.291 2.634 39.717 7.902 11.426 5.268 20.321 12.452 26.684 21.552 6.363 9.031 9.544 19.26 9.544 30.686.068 11.836-3.797 21.586-11.597 29.248-7.731 7.663-17.686 12.384-29.865 14.163v1.642c16.284 1.916 28.565 7.184 36.844 15.805 8.347 8.621 12.486 19.396 12.418 32.328 0 12.178-3.592 22.988-10.776 32.43-7.116 9.373-17.036 16.763-29.762 22.168-12.658 5.336-27.197 8.005-43.617 8.005Z"/><path fill="#6650F0" d="M340.357 361h-77.689V150.818h77.587c21.415 0 39.854 4.208 55.316 12.623 15.531 8.347 27.504 20.389 35.92 36.125 8.415 15.668 12.623 34.415 12.623 56.24 0 21.894-4.208 40.71-12.623 56.446-8.347 15.736-20.286 27.812-35.817 36.227-15.531 8.347-33.97 12.521-55.317 12.521Zm-26.888-43.309h24.938c11.768 0 21.723-1.984 29.865-5.952 8.21-4.037 14.402-10.571 18.576-19.602 4.242-9.1 6.363-21.21 6.363-36.331 0-15.12-2.121-27.162-6.363-36.125-4.242-9.031-10.502-15.531-18.781-19.499-8.21-4.037-18.336-6.055-30.378-6.055h-24.22v123.564Z"/></g><defs><clipPath id="a"><path fill="#fff" d="M0 0h512v512H0z"/></clipPath></defs></svg>